<svg xmlns="http://www.w3.org/2000/svg" 
version="1.0" 
width="1280.000000pt" 
height="356.000000pt" 
viewBox="0 0 1280.000000 356.000000" 
preserveAspectRatio="xMidYMid meet"
fill="#ffffff"

>
<rect width="100%" height="100%" fill="#ffffff"/>
<g transform="translate(0.000000,356.000000) scale(0.100000,-0.100000)" fill="#420000" className='bg-primary' stroke="none">
<path d="M10755 3184 c-555 -57 -1006 -274 -1279 -615 -235 -295 -338 -673 -295 -1090 73 -716 561 -1168 1395 -1293 328 -49 727 -43 1194 19 128 17 231 33 273 41 l27 6 0 864 0 864 -680 0 -680 0 0 -315 0 -315 210 0 210 0 0 -215 0 -214 -37 -8 c-57 -11 -250 -8 -318 6 -307 62 -496 229 -577 508 -31 106 -33 362 -4 463 42 142 125 272 234 361 235 195 639 232 1162 109 74 -18 144 -34 156 -37 20 -5 23 8 78 344 31 191 56 358 56 370 0 17 -11 25 -62 42 -233 76 -420 102 -753 106 -148 2 -288 1 -310 -1z"/>
<path d="M875 3118 c-3 -7 -4 -659 -3 -1448 l3 -1435 735 -3 c923 -4 1063 5 1298 84 220 73 367 191 450 359 110 223 102 540 -17 748 -91 159 -259 276 -474 331 -33 8 -61 17 -63 19 -3 2 22 14 54 26 166 60 300 196 359 362 35 99 43 262 19 372 -76 338 -385 543 -886 587 -178 15 -1469 13 -1475 -2z m1376 -764 c96 -29 150 -116 135 -221 -9 -69 -45 -116 -113 -150 -57 -27 -62 -28 -255 -31 l-198 -4 0 211 0 211 188 0 c144 0 201 -4 243 -16z m64 -932 c115 -53 160 -139 134 -260 -9 -45 -20 -66 -53 -98 -63 -64 -111 -75 -363 -81 l-213 -6 0 237 0 238 223 -4 c207 -3 225 -5 272 -26z"/>
<path d="M3750 1680 l0 -1450 1150 0 1150 0 0 370 0 370 -665 0 -665 0 0 210 0 210 610 0 610 0 -2 318 -3 317 -40 2 c-22 1 -295 2 -607 2 l-568 1 0 180 0 180 655 0 655 0 -2 368 -3 367 -1137 3 -1138 2 0 -1450z"/>
<path d="M6420 1681 l0 -1451 485 0 485 0 0 500 0 500 58 0 57 -1 89 -167 c49 -92 170 -317 268 -499 l180 -333 550 0 c437 0 548 3 542 13 -4 6 -169 272 -367 591 -357 573 -368 595 -323 596 26 0 179 103 240 160 138 129 216 295 235 499 10 112 0 254 -25 356 -22 86 -95 230 -152 301 -124 150 -353 276 -602 329 -211 45 -256 48 -1002 52 l-718 5 0 -1451z m1357 660 c62 -27 125 -92 144 -147 8 -21 14 -75 14 -119 0 -98 -16 -146 -67 -201 -67 -73 -116 -88 -310 -92 l-168 -4 0 297 0 297 168 -4 c149 -3 173 -6 219 -27z"/>
</g>

</svg>